# xmcd
# 
# Track frame offsets:
#     150
#     15768
#     32640
#     54714
#     75523
#     93238
#     114345
#     131063
#     148460
#     163837
#     181685
#     198138
# 
# Disc length: 2850
# 
# Revision: 0
# Processed by: cddbd v1.5.2PL0 Copyright (c) Steve Scherf et al.
# Submitted via: fre:ac v1.0.17
# 
DISCID=930b200c
DTITLE=GNOLA BLUES BAND - DOWN THE LINE
DYEAR=2015
DGENRE=Blues
TTITLE0=DUSTY ROADS
TTITLE1=TROUBLE AND PAIN
TTITLE2=FOUR BURNING FLAMES
TTITLE3=VENTILATOR BLUES
TTITLE4=I'LL NEVER DO IT AGAIN
TTITLE5=FALLING OUT OF LOVE
TTITLE6=SHE GOT ME NOW
TTITLE7=THE GHOSTS OF KING STREET
TTITLE8=ROOM ENOUGH
TTITLE9=FALLEN ANGELS
TTITLE10=I'VE BEEN THERE BEFORE
TTITLE11=DANGEROUS WOMAN BLUES
EXTD=
EXTT0=
EXTT1=
EXTT2=
EXTT3=
EXTT4=
EXTT5=
EXTT6=
EXTT7=
EXTT8=
EXTT9=
EXTT10=
EXTT11=
PLAYORDER=
